<svg width="25" height="25" viewBox="0 0 25 25" fill="none" xmlns="http://www.w3.org/2000/svg">
<path d="M18.2327 0H6.76726C3.03573 0 0 3.03573 0 6.76726V18.2329C0 21.9642 3.03573 25 6.76726 25H18.2329C21.9642 25 25 21.9642 25 18.2329V6.76726C25 3.03573 21.9642 0 18.2327 0V0ZM23.5343 18.2329C23.5343 21.1561 21.1561 23.5343 18.2327 23.5343H6.76726C3.84387 23.5343 1.4656 21.1561 1.4656 18.2329V6.76726C1.4656 3.84387 3.84387 1.4656 6.76726 1.4656H18.2329C21.1561 1.4656 23.5343 3.84387 23.5343 6.76726V18.2329Z" fill="#C5CAD0"/>
<path d="M12.4999 5.66406C8.73062 5.66406 5.66418 8.7305 5.66418 12.4998C5.66418 16.2691 8.73062 19.3355 12.4999 19.3355C16.2692 19.3355 19.3356 16.2691 19.3356 12.4998C19.3356 8.7305 16.2692 5.66406 12.4999 5.66406ZM12.4999 17.8699C9.53895 17.8699 7.12979 15.4609 7.12979 12.4998C7.12979 9.53883 9.53895 7.12967 12.4999 7.12967C15.4611 7.12967 17.87 9.53883 17.87 12.4998C17.87 15.4609 15.4611 17.8699 12.4999 17.8699Z" fill="#C5CAD0"/>
<path d="M19.4992 3.23682C18.3854 3.23682 17.4794 4.143 17.4794 5.25669C17.4794 6.37058 18.3854 7.27676 19.4992 7.27676C20.6131 7.27676 21.5193 6.37058 21.5193 5.25669C21.5193 4.14281 20.6131 3.23682 19.4992 3.23682ZM19.4992 5.81097C19.1937 5.81097 18.945 5.56225 18.945 5.25669C18.945 4.95095 19.1937 4.70242 19.4992 4.70242C19.805 4.70242 20.0537 4.95095 20.0537 5.25669C20.0537 5.56225 19.805 5.81097 19.4992 5.81097Z" fill="#C5CAD0"/>
</svg>
