<svg width="25" height="22" viewBox="0 0 25 22" fill="none" xmlns="http://www.w3.org/2000/svg">
<path d="M9.32667 22C8.2456 22 7.13286 21.9059 6.01344 21.7172C4.04183 21.3846 2.046 20.2757 1.48124 19.9437L0 19.0729L1.60369 18.5058C3.35672 17.8861 4.42311 17.5016 5.74317 16.8994C4.42139 16.2112 3.40268 14.9731 2.91231 13.3727L2.53923 12.1549L2.84517 12.2051C2.55506 11.8908 2.32599 11.5716 2.14842 11.2815C1.5169 10.2501 1.18255 8.98989 1.25369 7.90993L1.32388 6.847L1.91573 7.09351C1.66606 6.58655 1.48562 6.04513 1.37957 5.47767C1.12113 4.09379 1.33742 2.62357 1.98878 1.33792L2.50433 0.320306L3.19383 1.21077C5.37449 4.02734 8.1365 5.69814 11.4146 6.18725C11.2807 5.19487 11.3811 4.23714 11.7131 3.37867C12.0997 2.37911 12.7875 1.53151 13.7015 0.927345C14.7166 0.256526 15.9476 -0.0685273 17.1677 0.0120694C18.4622 0.0975881 19.6375 0.619108 20.571 1.52126C21.0268 1.3939 21.3627 1.25793 21.8167 1.07418C22.0898 0.963644 22.3995 0.838134 22.7871 0.694578L24.2153 0.16547L23.284 3.02552C23.3454 3.01999 23.4087 3.01527 23.4749 3.01219L25 2.93796L24.0986 4.26257C24.0469 4.33845 24.0337 4.35998 24.0154 4.38972C23.9428 4.50744 23.8524 4.65387 22.6151 6.43027C22.3053 6.87509 22.1506 7.45445 22.1794 8.0619C22.2891 10.3703 22.0257 12.4588 21.3961 14.2693C20.8006 15.9821 19.8779 17.4517 18.6537 18.6373C17.1389 20.104 15.2074 21.1083 12.9125 21.6218C11.7868 21.8737 10.5779 22 9.32667 22Z" fill="#C5CAD0"/>
</svg>
